<mxfile host="65bd71144e">
    <diagram id="1yoJm2SBrzNO9lYgi18e" name="Page-1">
        <mxGraphModel dx="503" dy="789" grid="1" gridSize="10" guides="1" tooltips="1" connect="1" arrows="1" fold="1" page="1" pageScale="1" pageWidth="850" pageHeight="1100" math="0" shadow="0">
            <root>
                <mxCell id="0"/>
                <mxCell id="1" parent="0"/>
                <mxCell id="2" value="" style="endArrow=block;html=1;fontColor=#000099;exitX=0.5;exitY=1;exitDx=0;exitDy=0;endFill=0;endSize=8;arcSize=0;entryX=0.5;entryY=0;entryDx=0;entryDy=0;" edge="1" source="3" target="4" parent="1">
                    <mxGeometry width="50" height="50" relative="1" as="geometry">
                        <mxPoint x="45" y="330" as="sourcePoint"/>
                        <mxPoint x="270" y="350" as="targetPoint"/>
                    </mxGeometry>
                </mxCell>
                <mxCell id="3" value="ns:LastItem" style="rounded=0;whiteSpace=wrap;html=1;snapToPoint=1;points=[[0.1,0],[0.2,0],[0.3,0],[0.4,0],[0.5,0],[0.6,0],[0.7,0],[0.8,0],[0.9,0],[0,0.1],[0,0.3],[0,0.5],[0,0.7],[0,0.9],[0.1,1],[0.2,1],[0.3,1],[0.4,1],[0.5,1],[0.6,1],[0.7,1],[0.8,1],[0.9,1],[1,0.1],[1,0.3],[1,0.5],[1,0.7],[1,0.9]];" vertex="1" parent="1">
                    <mxGeometry x="430" y="290" width="100" height="30" as="geometry"/>
                </mxCell>
                <mxCell id="4" value="ns:ListItem" style="rounded=0;whiteSpace=wrap;html=1;snapToPoint=1;points=[[0.1,0],[0.2,0],[0.3,0],[0.4,0],[0.5,0],[0.6,0],[0.7,0],[0.8,0],[0.9,0],[0,0.1],[0,0.3],[0,0.5],[0,0.7],[0,0.9],[0.1,1],[0.2,1],[0.3,1],[0.4,1],[0.5,1],[0.6,1],[0.7,1],[0.8,1],[0.9,1],[1,0.1],[1,0.3],[1,0.5],[1,0.7],[1,0.9]];" vertex="1" parent="1">
                    <mxGeometry x="430" y="390" width="130" height="30" as="geometry"/>
                </mxCell>
                <mxCell id="5" value="" style="endArrow=block;html=1;fontColor=#000099;exitX=0.5;exitY=1;exitDx=0;exitDy=0;endFill=0;endSize=8;arcSize=0;entryX=0;entryY=0.5;entryDx=0;entryDy=0;" edge="1" parent="1" source="6" target="4">
                    <mxGeometry width="50" height="50" relative="1" as="geometry">
                        <mxPoint x="-115" y="330" as="sourcePoint"/>
                        <mxPoint x="320" y="390" as="targetPoint"/>
                    </mxGeometry>
                </mxCell>
                <mxCell id="6" value="ns:FirstItem" style="rounded=0;whiteSpace=wrap;html=1;snapToPoint=1;points=[[0.1,0],[0.2,0],[0.3,0],[0.4,0],[0.5,0],[0.6,0],[0.7,0],[0.8,0],[0.9,0],[0,0.1],[0,0.3],[0,0.5],[0,0.7],[0,0.9],[0.1,1],[0.2,1],[0.3,1],[0.4,1],[0.5,1],[0.6,1],[0.7,1],[0.8,1],[0.9,1],[1,0.1],[1,0.3],[1,0.5],[1,0.7],[1,0.9]];" vertex="1" parent="1">
                    <mxGeometry x="270" y="290" width="100" height="30" as="geometry"/>
                </mxCell>
                <mxCell id="10" value="" style="endArrow=classic;html=1;exitX=0.3;exitY=1;exitDx=0;exitDy=0;endSize=8;arcSize=0;curved=1;entryX=1;entryY=0.1;entryDx=0;entryDy=0;" edge="1" parent="1" source="4" target="4">
                    <mxGeometry width="50" height="50" relative="1" as="geometry">
                        <mxPoint x="440" y="540" as="sourcePoint"/>
                        <mxPoint x="630" y="380" as="targetPoint"/>
                        <Array as="points">
                            <mxPoint x="469" y="540"/>
                            <mxPoint x="630" y="580"/>
                            <mxPoint x="670" y="490"/>
                            <mxPoint x="650" y="430"/>
                        </Array>
                    </mxGeometry>
                </mxCell>
                <mxCell id="11" value="ns:hasSuccessor" style="text;html=1;align=center;verticalAlign=middle;resizable=0;points=[];labelBackgroundColor=#ffffff;" vertex="1" connectable="0" parent="10">
                    <mxGeometry x="-0.1269" relative="1" as="geometry">
                        <mxPoint as="offset"/>
                    </mxGeometry>
                </mxCell>
                <mxCell id="12" value="" style="endArrow=classic;html=1;endSize=8;arcSize=0;curved=1;entryX=1;entryY=0.9;entryDx=0;entryDy=0;exitX=0.5;exitY=1;exitDx=0;exitDy=0;" edge="1" parent="1" source="4" target="4">
                    <mxGeometry width="50" height="50" relative="1" as="geometry">
                        <mxPoint x="480" y="430" as="sourcePoint"/>
                        <mxPoint x="560" y="390" as="targetPoint"/>
                        <Array as="points">
                            <mxPoint x="500" y="510"/>
                            <mxPoint x="560" y="540"/>
                            <mxPoint x="630" y="550"/>
                            <mxPoint x="640" y="500"/>
                            <mxPoint x="630" y="430"/>
                        </Array>
                    </mxGeometry>
                </mxCell>
                <mxCell id="13" value="(IF) (all) ns:hasNext" style="text;html=1;align=center;verticalAlign=middle;resizable=0;points=[];labelBackgroundColor=#ffffff;" vertex="1" connectable="0" parent="12">
                    <mxGeometry x="-0.1269" relative="1" as="geometry">
                        <mxPoint y="-4" as="offset"/>
                    </mxGeometry>
                </mxCell>
            </root>
        </mxGraphModel>
    </diagram>
</mxfile>